<svg width="14" height="12" viewBox="0 0 14 12" fill="none" xmlns="http://www.w3.org/2000/svg">
<path d="M1.25689 12C0.898593 12 0.599667 11.868 0.360111 11.604C0.120556 11.34 0.000518519 11.0103 0 10.6149V1.38514C0 0.990286 0.120037 0.660857 0.360111 0.396857C0.600185 0.132857 0.898852 0.000571429 1.25611 0H12.7439C13.1017 0 13.4003 0.132286 13.6399 0.396857C13.8794 0.661428 13.9995 0.990857 14 1.38514V10.6157C14 11.01 13.88 11.3394 13.6399 11.604C13.3998 11.8686 13.1011 12.0006 12.7439 12H1.25689ZM7 6.09943L13.2222 1.61571L12.9827 0.857143L7 5.14286L1.01733 0.857143L0.777778 1.61571L7 6.09943Z" fill="#7D7D7D"/>
</svg>
