<svg width="22" height="22" viewBox="0 0 22 22" fill="none" xmlns="http://www.w3.org/2000/svg">
<path d="M15.7025 18.975L19.525 15.18L18.37 14.025L15.7025 16.6375L14.63 15.565L13.475 16.7475L15.7025 18.975ZM3.3 6.6H16.5V4.4H3.3V6.6ZM16.5 22C14.9783 22 13.6814 21.4636 12.6093 20.3907C11.5372 19.3178 11.0007 18.0209 11 16.5C10.9993 14.9791 11.5357 13.6822 12.6093 12.6093C13.6829 11.5364 14.9798 11 16.5 11C18.0202 11 19.3175 11.5364 20.3918 12.6093C21.4661 13.6822 22.0022 14.9791 22 16.5C21.9978 18.0209 21.4614 19.3182 20.3907 20.3918C19.32 21.4654 18.0231 22.0015 16.5 22ZM0 20.9V0H19.8V9.5425C19.4517 9.3775 19.0942 9.24 18.7275 9.13C18.3608 9.02 17.985 8.9375 17.6 8.8825V2.2H2.2V17.655H8.8825C8.97416 18.2233 9.11643 18.7642 9.3093 19.2775C9.50216 19.7908 9.75406 20.2767 10.065 20.735L9.9 20.9L8.25 19.25L6.6 20.9L4.95 19.25L3.3 20.9L1.65 19.25L0 20.9ZM3.3 15.4H8.8825C8.9375 15.015 9.02 14.6392 9.13 14.2725C9.24 13.9058 9.3775 13.5483 9.5425 13.2H3.3V15.4ZM3.3 11H11.11C11.8067 10.3217 12.6181 9.78523 13.5443 9.3907C14.4705 8.99617 15.4557 8.79927 16.5 8.8H3.3V11Z" fill="#7C7A7A"/>
</svg>
