<svg width="16" height="10" viewBox="0 0 16 10" fill="none" xmlns="http://www.w3.org/2000/svg">
<path d="M0.727273 8.33333H15.2727V10H0.727273V8.33333ZM1.56364 4.95833L2.18182 3.725L2.8 4.95833L3.74545 4.33333L3.12727 3.1H4.36364V1.85H3.12727L3.74545 0.625L2.8 0L2.18182 1.225L1.56364 0L0.618182 0.625L1.23636 1.85H0V3.1H1.23636L0.618182 4.33333L1.56364 4.95833ZM6.43636 4.33333L7.38182 4.95833L8 3.725L8.61818 4.95833L9.56364 4.33333L8.94545 3.1H10.1818V1.85H8.94545L9.56364 0.625L8.61818 0L8 1.225L7.38182 0L6.43636 0.625L7.05455 1.85H5.81818V3.1H7.05455L6.43636 4.33333ZM16 1.85H14.7636L15.3818 0.625L14.4364 0L13.8182 1.225L13.2 0L12.2545 0.625L12.8727 1.85H11.6364V3.1H12.8727L12.2545 4.33333L13.2 4.95833L13.8182 3.725L14.4364 4.95833L15.3818 4.33333L14.7636 3.1H16V1.85Z" fill="#7D7D7D"/>
</svg>
