<svg width="24" height="24" viewBox="0 0 24 24" fill="none" xmlns="http://www.w3.org/2000/svg">
<path d="M1.97296 5.43996L11.0854 9.41857L11.184 9.63614L11.2244 9.72524H11.1134H10.6134V10.0272L1.6647 6.12008L1.97296 5.43996ZM11.6134 22.4998V11.5549L11.8913 11.6763L12 11.4364L12.1087 11.6763L12.3866 11.5549V22.4998H11.6134ZM22.3353 6.12008L13.3866 10.0272V9.72524H12.8866H12.7756L12.816 9.63614L12.9146 9.41857L22.027 5.43996L22.3353 6.12008Z" fill="black" stroke="#7D7D7D"/>
<path d="M1.36084 17.9018V6.03302C1.36087 5.89833 1.40064 5.76654 1.47533 5.65359C1.55002 5.54065 1.65643 5.45139 1.78169 5.39661L11.7118 1.06022C11.8026 1.02052 11.9009 1 12.0003 1C12.0997 1 12.1979 1.02052 12.2887 1.06022L22.2189 5.39661C22.3441 5.45139 22.4505 5.54065 22.5252 5.65359C22.5999 5.76654 22.6397 5.89833 22.6397 6.03302V17.9018C22.6397 18.0365 22.5999 18.1683 22.5252 18.2812C22.4505 18.3942 22.3441 18.4834 22.2189 18.5382L12.2887 22.8746C12.1979 22.9143 12.0997 22.9348 12.0003 22.9348C11.9009 22.9348 11.8026 22.9143 11.7118 22.8746L1.78169 18.5382C1.65643 18.4834 1.55002 18.3942 1.47533 18.2812C1.40064 18.1683 1.36087 18.0365 1.36084 17.9018Z" stroke="#7D7D7D" stroke-width="1.5" stroke-linecap="round" stroke-linejoin="round"/>
<path d="M6.68066 3.25732L16.8993 7.71914C17.0245 7.77391 17.1309 7.86317 17.2056 7.97612C17.2803 8.08907 17.3201 8.22086 17.3201 8.35555V12.5479" stroke="#7D7D7D" stroke-width="1.5" stroke-linecap="round" stroke-linejoin="round"/>
</svg>
