<svg width="20" height="21" viewBox="0 0 20 21" fill="none" xmlns="http://www.w3.org/2000/svg">
<path d="M14.2713 11.4089C15.9144 12.1591 17.3154 13.3277 18.3241 14.7895C19.3328 16.2513 19.9111 17.9511 19.997 19.7066C20.0085 19.8674 19.9866 20.0288 19.9327 20.1813C19.8788 20.3338 19.7939 20.4743 19.6831 20.5947C19.5723 20.7151 19.4377 20.8128 19.2873 20.8822C19.1368 20.9515 18.9736 20.9912 18.8072 20.9987C18.6407 21.0062 18.4744 20.9815 18.3179 20.926C18.1615 20.8705 18.018 20.7853 17.8961 20.6755C17.7741 20.5656 17.6761 20.4333 17.6077 20.2864C17.5393 20.1394 17.502 19.9806 17.4979 19.8195C17.4069 17.9549 16.5771 16.1958 15.1807 14.9073C13.7843 13.6189 11.9286 12.9 9.99871 12.9C8.06885 12.9 6.21311 13.6189 4.8167 14.9073C3.4203 16.1958 2.59049 17.9549 2.49955 19.8195C2.47707 20.1351 2.32773 20.4297 2.0835 20.6401C1.83926 20.8505 1.51956 20.9601 1.19285 20.9453C0.866132 20.9305 0.558384 20.7926 0.335503 20.5611C0.112622 20.3296 -0.00767279 20.0228 0.00037971 19.7066C0.0861816 17.9512 0.664256 16.2516 1.67263 14.7898C2.68101 13.3281 4.08166 12.1593 5.72444 11.4089C4.67174 10.5595 3.91507 9.41718 3.55736 8.13717C3.19964 6.85717 3.25825 5.50165 3.72521 4.255C4.19217 3.00836 5.04481 1.9311 6.16715 1.16977C7.28949 0.408444 8.62705 0 9.99788 0C11.3687 0 12.7063 0.408444 13.8286 1.16977C14.9509 1.9311 15.8036 3.00836 16.2705 4.255C16.7375 5.50165 16.7961 6.85717 16.4384 8.13717C16.0807 9.41718 15.324 10.5595 14.2713 11.4089ZM14.1695 6.44992C14.1695 5.37996 13.7301 4.35383 12.9479 3.59725C12.1658 2.84068 11.1049 2.41564 9.99871 2.41564C8.89254 2.41564 7.83167 2.84068 7.04948 3.59725C6.2673 4.35383 5.82787 5.37996 5.82787 6.44992C5.82787 7.51988 6.2673 8.54601 7.04948 9.30258C7.83167 10.0592 8.89254 10.4842 9.99871 10.4842C11.1049 10.4842 12.1658 10.0592 12.9479 9.30258C13.7301 8.54601 14.1695 7.51988 14.1695 6.44992Z" fill="#7D7D7D"/>
</svg>
